<svg width="106" height="35" viewBox="0 0 106 35" fill="none" xmlns="http://www.w3.org/2000/svg">
<path d="M18.8045 2.19041L56.4136 2.19041" stroke="#2DA623" stroke-width="1.9"/>
<path d="M-2.03112e-06 29.8782L7.20559 29.8792" stroke="#2DA623" stroke-width="2.5"/>
<path d="M4.53405 32.0281L15.3782 16.5313L20.533 8.37221L24.7416 1.52194" stroke="#C41902" stroke-width="2.5"/>
<path d="M3.60056 32.5361L10.5292 32.4625" stroke="#C31902" stroke-width="2.5"/>
<path d="M23.8208 2.10034L56.9278 1.84922" stroke="#C31902" stroke-width="2.5"/>
<path d="M10.135 31.9143L30.4948 1.35311" stroke="white" stroke-width="2.5"/>
<path d="M29.467 1.8757L105.084 1.8757" stroke="white" stroke-width="2.5"/>
<path d="M9.20151 32.4081L86.419 32.4081" stroke="white" stroke-width="2.5"/>
<line y1="-1.25" x2="36.7021" y2="-1.25" transform="matrix(0.508684 -0.860954 0.743338 0.668916 86.4143 34.0538)" stroke="white" stroke-width="2.5"/>
<path d="M1.09538 29.3248L19.9107 2.19037" stroke="#2DA623" stroke-width="2.5"/>
<path d="M37.1776 13.2727V22H35.3537V14.7727H31.8253V22H30.0014V13.2727H37.1776ZM40.4386 22H38.4613L41.4741 13.2727H43.8519L46.8604 22H44.8832L42.6971 15.267H42.6289L40.4386 22ZM40.315 18.5696H44.9854V20.0099H40.315V18.5696ZM46.5121 14.794V13.2727H53.6797V14.794H51.0078V22H49.1839V14.794H46.5121ZM54.8601 22V13.2727H58.3033C58.9652 13.2727 59.5291 13.3991 59.995 13.652C60.4609 13.902 60.8161 14.25 61.0604 14.696C61.3075 15.1392 61.4311 15.6506 61.4311 16.2301C61.4311 16.8097 61.3061 17.321 61.0561 17.7642C60.8061 18.2074 60.4439 18.5526 59.9695 18.7997C59.4979 19.0469 58.9268 19.1705 58.2564 19.1705H56.0618V17.6918H57.9581C58.3132 17.6918 58.6058 17.6307 58.8359 17.5085C59.0689 17.3835 59.2422 17.2116 59.3558 16.9929C59.4723 16.7713 59.5305 16.517 59.5305 16.2301C59.5305 15.9403 59.4723 15.6875 59.3558 15.4716C59.2422 15.2528 59.0689 15.0838 58.8359 14.9645C58.603 14.8423 58.3075 14.7812 57.9496 14.7812H56.7053V22H54.8601ZM62.6296 13.2727H64.4705V18.7614H64.543L68.3143 13.2727H69.9293V22H68.0842V16.5071H68.0202L64.2276 22H62.6296V13.2727ZM79.4737 17.6364C79.4737 18.5881 79.2933 19.3977 78.9325 20.0653C78.5746 20.733 78.0859 21.2429 77.4666 21.5952C76.8501 21.9446 76.157 22.1193 75.3871 22.1193C74.6115 22.1193 73.9155 21.9432 73.299 21.5909C72.6825 21.2386 72.1953 20.7287 71.8374 20.0611C71.4794 19.3935 71.3004 18.5852 71.3004 17.6364C71.3004 16.6847 71.4794 15.875 71.8374 15.2074C72.1953 14.5398 72.6825 14.0312 73.299 13.6818C73.9155 13.3295 74.6115 13.1534 75.3871 13.1534C76.157 13.1534 76.8501 13.3295 77.4666 13.6818C78.0859 14.0312 78.5746 14.5398 78.9325 15.2074C79.2933 15.875 79.4737 16.6847 79.4737 17.6364ZM77.603 17.6364C77.603 17.0199 77.5107 16.5 77.326 16.0767C77.1442 15.6534 76.8871 15.3324 76.5547 15.1136C76.2223 14.8949 75.8331 14.7855 75.3871 14.7855C74.9411 14.7855 74.5518 14.8949 74.2195 15.1136C73.8871 15.3324 73.6286 15.6534 73.4439 16.0767C73.2621 16.5 73.1712 17.0199 73.1712 17.6364C73.1712 18.2528 73.2621 18.7727 73.4439 19.196C73.6286 19.6193 73.8871 19.9403 74.2195 20.1591C74.5518 20.3778 74.9411 20.4872 75.3871 20.4872C75.8331 20.4872 76.2223 20.3778 76.5547 20.1591C76.8871 19.9403 77.1442 19.6193 77.326 19.196C77.5107 18.7727 77.603 18.2528 77.603 17.6364ZM80.1097 14.794V13.2727H87.2773V14.794H84.6055V22H82.7816V14.794H80.1097Z" fill="white"/>
</svg>
